<?xml version="1.0" standalone="no"?>
<!DOCTYPE svg PUBLIC "-//W3C//DTD SVG 20010904//EN"
 "http://www.w3.org/TR/2001/REC-SVG-20010904/DTD/svg10.dtd">
<svg version="1.0" xmlns="http://www.w3.org/2000/svg"
 width="500.000000pt" height="500.000000pt" viewBox="0 0 500.000000 500.000000"
 preserveAspectRatio="xMidYMid meet">

<g transform="translate(0.000000,500.000000) scale(0.100000,-0.100000)"
fill="#000000" stroke="none">
<path d="M2145 3890 l-340 -341 -73 3 c-39 2 -72 1 -72 -2 0 -17 28 -30 62
-30 42 0 46 -5 23 -30 -14 -15 -14 -18 0 -30 14 -11 21 -8 53 23 36 35 41 37
105 37 37 0 67 -4 67 -8 0 -4 -15 -22 -33 -40 -31 -30 -38 -32 -102 -32 -67 0
-68 0 -50 -20 10 -11 31 -20 48 -20 25 0 28 -2 17 -15 -10 -12 -10 -19 -2 -27
9 -9 19 -5 40 15 25 24 35 27 102 27 l74 0 -39 -40 c-35 -36 -44 -40 -89 -40
l-50 0 40 -39 c39 -40 39 -40 60 -20 20 18 39 19 515 19 l495 0 49 -50 c53
-54 62 -58 72 -34 3 9 -7 28 -28 50 l-33 34 75 0 c63 0 79 3 94 20 14 16 15
20 4 20 -8 0 -33 18 -54 40 l-39 40 71 0 c65 0 72 -2 75 -21 3 -20 7 -18 48
19 45 41 45 41 18 42 -26 0 -28 3 -28 40 l0 40 40 0 c37 0 40 -2 40 -27 l0
-27 40 40 c22 21 40 41 40 44 0 3 -64 4 -142 2 l-141 -3 -341 340 c-188 188
-348 341 -356 341 -8 0 -168 -153 -355 -340z m395 255 l34 -35 -37 -38 -37
-37 -37 37 -37 38 34 35 c19 19 37 35 40 35 3 0 21 -16 40 -35z m-100 -100
l34 -35 -37 -38 -37 -37 -37 37 -37 38 34 35 c19 19 37 35 40 35 3 0 21 -16
40 -35z m200 0 l34 -35 -37 -38 -37 -37 -37 37 -37 38 34 35 c19 19 37 35 40
35 3 0 21 -16 40 -35z m-280 -139 c0 -6 -78 -88 -172 -183 l-173 -173 -67 0
c-38 0 -68 3 -68 7 0 4 93 101 207 215 l207 208 33 -32 c18 -18 33 -37 33 -42z
m180 39 l34 -35 -37 -38 -37 -37 -37 37 -37 38 34 35 c19 19 37 35 40 35 3 0
21 -16 40 -35z m580 -387 c0 -5 -30 -8 -67 -8 l-68 0 -177 177 -178 177 37 38
37 38 208 -207 c114 -114 208 -211 208 -215z m-777 120 l-128 -128 -67 0 c-38
0 -68 3 -68 7 0 4 71 79 157 165 l157 158 38 -37 38 -37 -127 -128z m577 -120
c0 -5 -30 -8 -67 -8 l-68 0 -127 127 -128 127 37 38 37 38 158 -157 c87 -87
158 -161 158 -165z m-313 110 c57 -57 103 -106 103 -110 0 -5 -94 -8 -210 -8
-115 0 -210 3 -210 7 0 8 202 213 210 213 2 0 51 -46 107 -102z m-427 -153 c0
-3 -17 -20 -37 -40 -36 -33 -41 -34 -113 -35 l-74 0 39 40 c39 39 40 40 112
40 40 0 73 -2 73 -5z m615 -35 l39 -40 -334 0 -334 0 39 40 39 40 256 0 256 0
39 -40z m210 0 l39 -40 -74 0 c-72 1 -77 2 -112 35 -21 20 -38 37 -38 40 0 3
33 5 73 5 72 0 73 -1 112 -40z m200 0 l39 -40 -74 0 c-70 0 -76 2 -107 32 -18
18 -33 36 -33 40 0 4 31 8 68 8 66 0 69 -1 107 -40z m75 13 c0 -25 0 -26 -20
-8 -11 10 -20 22 -20 27 0 4 9 8 20 8 15 0 20 -7 20 -27z m-365 -133 l39 -40
-454 0 -454 0 39 40 39 40 376 0 376 0 39 -40z m210 0 l39 -40 -75 0 c-74 0
-75 0 -114 40 l-39 40 75 0 c74 0 75 0 114 -40z"/>
<path d="M1560 3334 c0 -25 -54 -83 -395 -424 -217 -217 -395 -402 -395 -410
0 -8 179 -194 398 -413 383 -382 399 -397 415 -379 10 10 17 35 17 55 0 36 1
37 38 37 56 0 82 31 82 99 l0 54 21 -27 c26 -33 39 -33 72 2 l27 28 0 565 0
566 -24 22 -23 22 -37 -41 -36 -40 0 78 c0 66 -3 82 -20 97 -16 14 -20 15 -20
4 0 -8 -18 -33 -40 -54 l-40 -39 0 75 c0 41 5 80 10 85 7 7 0 20 -20 39 l-30
29 0 -30z m-297 -536 l-298 -298 298 -298 298 -298 -3 -72 -3 -72 -370 370
-370 370 370 370 370 370 3 -72 3 -72 -298 -298z m377 178 l-40 -41 0 75 c0
72 1 75 38 113 l37 38 3 -72 3 -73 -41 -40z m160 -478 l0 -572 -40 39 -40 39
0 495 0 495 37 38 c20 21 38 38 40 38 2 0 3 -257 3 -572z m-430 207 c-104
-105 -190 -197 -190 -205 0 -8 86 -100 190 -205 l190 -191 0 -74 0 -75 -272
272 -273 273 270 270 270 270 3 -72 3 -71 -191 -192z m310 -207 l0 -452 -40
39 -40 39 0 375 0 375 37 38 c20 21 38 38 40 38 2 0 3 -203 3 -452z m-120 0
l0 -333 -167 167 -168 168 165 165 c91 91 166 165 167 165 2 0 3 -150 3 -332z
m120 -587 l0 -75 -40 39 c-40 39 -40 40 -40 114 l0 75 40 -39 c40 -39 40 -40
40 -114z m-65 -61 c3 -5 1 -10 -4 -10 -6 0 -11 5 -11 10 0 6 2 10 4 10 3 0 8
-4 11 -10z"/>
<path d="M3519 3314 c-16 -18 -20 -28 -11 -31 6 -3 12 -13 12 -24 0 -22 -4
-23 -30 -7 -15 10 -22 10 -32 0 -9 -9 -4 -20 25 -50 35 -36 37 -41 37 -105 0
-37 -4 -67 -8 -67 -4 0 -22 15 -40 33 -30 31 -32 38 -32 102 0 67 0 68 -20 50
-11 -10 -20 -31 -20 -48 0 -25 -2 -28 -15 -17 -12 10 -19 10 -27 2 -9 -9 -5
-19 15 -40 24 -25 27 -35 27 -102 l0 -74 -40 39 c-36 35 -40 44 -40 90 l0 50
-30 -32 c-16 -17 -35 -33 -42 -36 -9 -3 -7 -11 10 -29 l22 -24 0 -496 c0 -482
-1 -495 -20 -513 -15 -14 -17 -21 -9 -31 6 -8 15 -11 20 -8 5 3 9 -1 9 -9 0
-8 9 -22 20 -32 20 -18 20 -17 20 31 0 45 4 54 40 89 l40 39 0 -74 c0 -67 -3
-77 -27 -102 -20 -21 -24 -31 -15 -40 8 -8 15 -8 27 2 13 11 15 8 15 -17 0
-17 9 -38 20 -48 20 -18 20 -17 20 51 0 66 2 72 33 102 18 18 36 32 40 32 4 0
7 -30 7 -67 0 -64 -2 -69 -37 -105 -29 -30 -34 -41 -25 -50 10 -10 17 -10 32
0 28 17 30 16 30 -26 0 -34 13 -62 30 -62 3 0 4 33 2 73 -3 63 -1 75 17 91 13
11 21 31 21 50 0 23 -3 27 -12 18 -23 -23 -28 -12 -28 56 0 56 4 72 20 87 11
10 20 30 20 44 0 19 -3 22 -12 13 -23 -23 -28 -12 -28 54 0 51 5 72 20 91 11
14 20 34 20 45 0 15 -5 18 -20 13 -20 -6 -20 -2 -20 205 0 207 0 211 20 205
15 -5 20 -2 20 13 0 11 -9 31 -20 45 -15 19 -20 40 -20 91 0 66 5 77 28 54 9
-9 12 -6 12 13 0 14 -9 34 -20 44 -16 15 -20 31 -20 87 0 68 5 79 28 56 9 -9
12 -5 12 18 0 19 -8 39 -21 50 -18 17 -20 28 -17 91 2 40 1 73 -3 73 -3 0 -16
-12 -30 -26z m1 -423 l0 -75 -40 39 c-40 39 -40 40 -40 114 l0 75 40 -39 c40
-39 40 -40 40 -114z m-120 -391 l0 -376 -40 -39 -40 -39 0 454 0 454 40 -39
40 -39 0 -376z m120 0 l0 -256 -40 -39 -40 -39 0 334 0 334 40 -39 40 -39 0
-256z m-40 -504 l-40 -41 0 75 c0 72 1 75 38 113 l37 38 3 -72 3 -73 -41 -40z"/>
<path d="M3780 2935 c0 -25 30 -59 202 -232 l203 -203 -203 -203 c-176 -176
-203 -207 -200 -231 3 -24 23 -6 233 204 l230 230 -233 233 c-212 212 -232
229 -232 202z"/>
<path d="M3780 2731 c0 -17 30 -55 102 -127 l102 -104 -102 -104 c-72 -72
-102 -110 -102 -127 0 -20 20 -3 120 96 66 66 120 127 120 135 0 8 -54 69
-120 135 -100 99 -120 116 -120 96z"/>
<path d="M3780 2500 c0 -43 13 -52 30 -20 8 14 8 26 0 40 -17 32 -30 23 -30
-20z"/>
<path d="M1979 1820 c-24 -19 -22 -19 536 -20 l559 0 -39 -40 -39 -40 -495 0
-495 0 -33 32 c-26 25 -36 29 -45 20 -10 -10 -10 -17 0 -32 11 -18 10 -20 -21
-20 -25 0 -42 -9 -70 -38 -20 -21 -37 -48 -37 -60 0 -16 -6 -22 -23 -22 -13 0
-34 -11 -47 -25 l-24 -26 389 -389 c215 -215 397 -390 405 -390 8 0 193 178
410 395 341 341 399 395 424 395 l30 0 -29 30 c-19 20 -32 27 -39 20 -5 -5
-44 -10 -85 -10 l-75 0 39 40 c21 22 46 40 54 40 11 0 10 4 -4 20 -15 17 -31
20 -94 20 l-75 0 37 38 37 38 -23 22 -23 22 -541 0 c-523 0 -542 -1 -564 -20z
m46 -180 l39 -40 -75 0 c-74 0 -75 0 -114 40 l-39 40 75 0 c74 0 75 0 114 -40z
m890 0 l-39 -40 -376 0 -376 0 -39 40 -39 40 454 0 454 0 -39 -40z m210 0
c-39 -40 -40 -40 -114 -40 l-75 0 39 40 c39 40 40 40 114 40 l75 0 -39 -40z
m-1270 -30 c3 -5 1 -10 -4 -10 -6 0 -11 5 -11 10 0 6 2 10 4 10 3 0 8 -4 11
-10z m277 -277 c126 -125 228 -233 228 -238 0 -6 -15 -25 -33 -43 l-33 -32
-269 270 -270 270 75 0 75 0 227 -227z m156 44 l182 -183 -38 -37 -38 -37
-219 220 -220 220 75 0 75 0 183 -183z m379 16 l-167 -168 -167 168 -168 167
335 0 335 0 -168 -167z m158 -53 l-219 -220 -38 37 -38 37 182 183 183 183 75
0 75 0 -220 -220z m150 -50 l-270 -270 -37 37 -38 37 232 233 233 233 75 0 75
0 -270 -270z m-435 -165 l34 -35 -37 -38 -37 -37 -37 37 -37 38 34 35 c19 19
37 35 40 35 3 0 21 -16 40 -35z m-100 -100 l34 -35 -37 -38 -37 -37 -37 37
-37 38 34 35 c19 19 37 35 40 35 3 0 21 -16 40 -35z m200 0 l34 -35 -37 -38
-37 -37 -37 37 -37 38 34 35 c19 19 37 35 40 35 3 0 21 -16 40 -35z m-100
-100 l34 -35 -37 -38 -37 -37 -37 37 -37 38 34 35 c19 19 37 35 40 35 3 0 21
-16 40 -35z"/>
</g>
</svg>
